<?xml version="1.0" standalone="no"?><!DOCTYPE svg PUBLIC "-//W3C//DTD SVG 1.1//EN" "http://www.w3.org/Graphics/SVG/1.1/DTD/svg11.dtd"><svg t="1737045003861" class="icon" viewBox="0 0 1024 1024" version="1.1" xmlns="http://www.w3.org/2000/svg" p-id="4295" xmlns:xlink="http://www.w3.org/1999/xlink" width="200" height="200"><path d="M354.896247 573.033113l-68.944812-259.95585H170.666667v380.891832h71.205298V393.889625l75.726269 300.07947h74.030905l75.726269-300.07947v300.07947h71.205298V313.077263H423.275938l-68.379691 259.95585zM694.534216 315.90287h-77.421633v378.066225h268.432671v-64.423841h-191.011038V315.90287z" p-id="4296" fill="#ffffff"></path><path d="M910.975717 0H113.024283a113.024283 113.024283 0 0 0-113.024283 113.024283v797.951434a113.024283 113.024283 0 0 0 113.024283 113.024283h797.951434a113.024283 113.024283 0 0 0 113.024283-113.024283V113.024283a113.024283 113.024283 0 0 0-113.024283-113.024283z m45.209713 910.975717a45.209713 45.209713 0 0 1-45.209713 45.209713H113.024283a45.209713 45.209713 0 0 1-45.209713-45.209713V113.024283a45.209713 45.209713 0 0 1 45.209713-45.209713h797.951434a45.209713 45.209713 0 0 1 45.209713 45.209713z" p-id="4297" fill="#ffffff"></path></svg>