<?xml version="1.0" standalone="no"?><!DOCTYPE svg PUBLIC "-//W3C//DTD SVG 1.1//EN" "http://www.w3.org/Graphics/SVG/1.1/DTD/svg11.dtd"><svg t="1737388673752" class="icon" viewBox="0 0 1024 1024" version="1.1" xmlns="http://www.w3.org/2000/svg" p-id="4173" xmlns:xlink="http://www.w3.org/1999/xlink" width="200" height="200"><path d="M287.168 646.528c0 14.144 11.648 25.792 25.792 25.792h385.6a25.92 25.92 0 0 0 25.792-25.792 25.92 25.92 0 0 0-25.792-25.728H312.96a25.856 25.856 0 0 0-25.792 25.728z m411.392 104.768H312.96a25.92 25.92 0 0 0-25.792 25.792c0 14.144 11.648 25.792 25.792 25.792h385.6a25.92 25.92 0 0 0 25.792-25.792 25.92 25.92 0 0 0-25.792-25.792z" fill="#ffffff" p-id="4174"></path><path d="M595.904 96H211.584a51.648 51.648 0 0 0-51.584 51.584v742.912c0 28.416 23.168 51.584 51.584 51.584h585.6a51.648 51.648 0 0 0 51.52-51.584V348.8L595.904 96z m33.536 106.496l118.784 118.784H638.336a9.088 9.088 0 0 1-8.896-8.896V202.496z m167.616 687.872s0 0.128 0 0l-585.472 0.128s-0.128 0-0.128-0.128V147.712s0-0.128 0.128-0.128h364.16l2.048 1.984v162.688c0 33.28 27.264 60.48 60.416 60.48h158.848v517.632z" fill="#ffffff" p-id="4175"></path><path d="M402.688 368.32a82.176 82.176 0 1 0 0-164.48 82.24 82.24 0 1 0 0 164.48z m0-119.36a37.12 37.12 0 1 1 0 74.304 37.12 37.12 0 0 1 0-74.304zM312.96 510.08c14.272 0 25.792-11.456 25.792-25.728 0-27.904 29.248-51.584 63.936-51.584s64 23.552 64 51.584a25.728 25.728 0 1 0 51.52 0c0-56.832-51.84-103.104-115.52-103.104-63.744 0-115.52 46.272-115.52 103.104 0 14.272 11.52 25.792 25.792 25.792z" fill="#ffffff" p-id="4176"></path></svg>