<?xml version="1.0" standalone="no"?><!DOCTYPE svg PUBLIC "-//W3C//DTD SVG 1.1//EN" "http://www.w3.org/Graphics/SVG/1.1/DTD/svg11.dtd"><svg t="1736922285123" class="icon" viewBox="0 0 1024 1024" version="1.1" xmlns="http://www.w3.org/2000/svg" p-id="21446" xmlns:xlink="http://www.w3.org/1999/xlink" width="200" height="200"><path d="M169.68 18.24c17.88-3.44 36.16-2.32 54.24-2.44 201.36-0.04 402.72 0.04 604.08-0.04 44.76 0.48 88.36 21 118.92 53.44 27.84 29.92 45.08 69.96 46 110.96V792c-2 42.6-21.28 83.64-51.36 113.6-28.68 26.8-66.08 44.68-105.4 47.56-216.12 0-432.32 0.04-648.44 0-49.44-4.04-96.92-30.64-125.32-71.48-21.24-29.4-31.64-65.76-31.84-101.8-0.16-196.04 0-392.08-0.08-588.12-0.16-39.12 11.4-78.76 35.72-109.72C91.32 49 128.96 26 169.68 18.24m56.68 249.6c0.68 136.48-0.96 273 0.84 409.48 28.68 2.24 57.6 0.96 86.36 0.64 3.84-44.2 0.72-88.84 1.64-133.2 28.48-0.76 57.2 2.08 85.44-2.96 35.36-4.8 71.04-18.48 95.28-45.6 29.12-29.16 37.92-72.64 34.8-112.48-2.36-41-24.4-81.12-59.84-102.52-35.12-22.52-78-28.52-118.96-27.64-38.76 0-77.52 0.92-116.28 1.76-7.52-1.2-10.8 6.24-9.28 12.52m371.84 118.48c-29.24 28.04-36.16 76.04-15.96 111.16 14.32 24.76 40.08 40.08 65.44 51.48 21.56 9.96 46.2 14.96 64.36 31 12.08 12.24-1.84 29.24-15.84 30.32-43.32 8.52-86.24-8-125.36-24.48-0.32 24.88-0.88 49.84 0.04 74.72 7.24 17.44 30.4 16.04 45.92 21.6 49.76 8.48 106.36 9.84 149.72-19.96 43.84-29.36 53-98.8 16.64-137.48-31.24-32.08-77.32-39.48-114.64-61.52-11.16-5.68-14.04-21.88-5-30.8 25.48-11.84 54.72-6 81.08-0.48 14.72 2.64 27.52 11.56 42.44 13.32 0.44-25.8 0.04-51.6 0.24-77.44-29.16-15.04-63.12-15-95.16-15.04-33.84-0.48-69.24 9.56-93.92 33.6z" fill="#2c2c2c" p-id="21447"></path><path d="M315.24 334.48c32.88-0.68 69-5.92 98.64 11.76 36.6 21.4 37.96 83.12 1.44 105.2-29.92 18.4-66.36 16.28-100.04 15.6-0.04-44.2 0-88.36-0.04-132.56z" fill="#2c2c2c" p-id="21448"></path></svg>