<?xml version="1.0" standalone="no"?><!DOCTYPE svg PUBLIC "-//W3C//DTD SVG 1.1//EN" "http://www.w3.org/Graphics/SVG/1.1/DTD/svg11.dtd"><svg t="1736921925862" class="icon" viewBox="0 0 1024 1024" version="1.1" xmlns="http://www.w3.org/2000/svg" p-id="15332" xmlns:xlink="http://www.w3.org/1999/xlink" width="200" height="200"><path d="M113.777039 853.334442h284.441597a28.44376 28.44376 0 0 0 26.169779-16.496861l95.571193-211.056217 77.369346 253.152861a28.44376 28.44376 0 0 0 22.185813 19.910832h6.257947a28.44376 28.44376 0 0 0 22.754808-10.807908l110.364067-143.358789 37.545683 105.812106a28.44376 28.44376 0 0 0 26.737774 18.772841h155.874684a28.44376 28.44376 0 0 0 0-56.888519H843.085878l-50.061577-137.100842a28.44376 28.44376 0 0 0-49.492582-7.394938L635.442632 808.391821l-83.056298-273.632688A28.44376 28.44376 0 0 0 527.355545 512.004325a29.012755 29.012755 0 0 0-27.875764 16.497861L379.446795 796.445922H113.777039a28.44376 28.44376 0 1 0 0 56.88952z" p-id="15333" fill="#2c2c2c"></path><path d="M995.54759 967.111481H56.888519V48.932237a28.44376 28.44376 0 0 0-56.888519 0v946.624003A28.44376 28.44376 0 0 0 28.44376 1024h967.10383a28.44376 28.44376 0 0 0 0-56.888519z" p-id="15334" fill="#2c2c2c"></path><path d="M542.14642 455.115806a227.554078 227.554078 0 1 0-227.553077-227.553078A227.554078 227.554078 0 0 0 542.14542 455.114806zM530.768516 56.898169V97.287828a14.22188 14.22188 0 1 0 28.44476 0V56.897169A170.665558 170.665558 0 0 1 711.673988 212.770853h-39.821663a14.22188 14.22188 0 0 0 0 28.444759h39.821663a170.665558 170.665558 0 0 1-152.460712 157.011674v-41.528649a14.22188 14.22188 0 0 0-28.44476 0v41.529649a170.665558 170.665558 0 0 1-158.148664-155.305688h46.647606a14.22188 14.22188 0 0 0 0-28.44476h-46.648606A170.665558 170.665558 0 0 1 530.768516 56.898169z" p-id="15335" fill="#2c2c2c"></path><path d="M542.14642 266.246401a36.977688 36.977688 0 0 0 14.22188-2.843976l48.355592 50.061577a14.22188 14.22188 0 1 0 21.048822-19.910832l-48.924587-50.630572a37.546683 37.546683 0 1 0-34.701707 22.754808z" p-id="15336" fill="#2c2c2c"></path></svg>