<?xml version="1.0" standalone="no"?><!DOCTYPE svg PUBLIC "-//W3C//DTD SVG 1.1//EN" "http://www.w3.org/Graphics/SVG/1.1/DTD/svg11.dtd"><svg t="1736932490636" class="icon" viewBox="0 0 1024 1024" version="1.1" xmlns="http://www.w3.org/2000/svg" p-id="8126" xmlns:xlink="http://www.w3.org/1999/xlink" width="200" height="200"><path d="M1024 507.547826v197.008696c0 26.713043-16.695652 48.973913-44.521739 48.973913s-44.521739-22.26087-44.521739-48.973913V557.634783H174.747826l113.530435 112.417391c18.921739 18.921739 17.808696 50.086957-2.226087 70.121739-10.017391 10.017391-23.373913 14.469565-36.730435 14.469565-12.243478 0-25.6-4.452174-35.617391-14.469565l-200.347826-197.008696C5.565217 534.26087 0 520.904348 0 507.547826c0-13.356522 5.565217-25.6 14.469565-34.504348l199.234783-197.008695c18.921739-18.921739 51.2-18.921739 70.121739 0 18.921739 18.921739 18.921739 50.086957-1.113044 70.121739L169.182609 458.573913h803.617391c13.356522 0 27.826087 5.565217 36.730435 14.469565 8.904348 8.904348 14.469565 22.26087 14.469565 34.504348z" p-id="8127" fill="#2c2c2c"></path></svg>