<?xml version="1.0" standalone="no"?><!DOCTYPE svg PUBLIC "-//W3C//DTD SVG 1.1//EN" "http://www.w3.org/Graphics/SVG/1.1/DTD/svg11.dtd"><svg t="1736877992708" class="icon" viewBox="0 0 1024 1024" version="1.1" xmlns="http://www.w3.org/2000/svg" p-id="9643" xmlns:xlink="http://www.w3.org/1999/xlink" width="200" height="200"><path d="M416.995556 628.337778a30.151111 30.151111 0 0 0 30.435555 30.435555 30.435556 30.435556 0 0 0 30.72-30.435555v-74.808889a215.04 215.04 0 0 1 213.902222-213.902222h67.982223l-67.982223 67.982222a28.444444 28.444444 0 0 0 0 44.088889 28.444444 28.444444 0 0 0 20.195556 10.24 24.462222 24.462222 0 0 0 20.48-10.24l95.004444-95.004445a65.706667 65.706667 0 0 0 0-95.288889l-85.333333-85.333333a28.444444 28.444444 0 0 0-44.088889 0 28.444444 28.444444 0 0 0 0 44.088889L763.448889 284.444444h-74.808889a276.195556 276.195556 0 0 0-275.057778 275.057778z" fill="#2c2c2c" p-id="9644"></path><path d="M848.213333 560.355556a30.435556 30.435556 0 0 0-30.435555 30.72v173.226666a42.382222 42.382222 0 0 1-44.373334 40.675556H250.595556a42.382222 42.382222 0 0 1-44.373334-40.675556V271.644444a42.382222 42.382222 0 0 1 44.373334-40.675555h213.902222a30.72 30.72 0 0 0 0-61.155556H250.595556A105.244444 105.244444 0 0 0 145.066667 271.644444v492.657778a102.968889 102.968889 0 0 0 105.528889 101.831111h522.808888a105.244444 105.244444 0 0 0 105.528889-101.831111v-173.226666a30.72 30.72 0 0 0-30.72-30.72z" fill="#2c2c2c" p-id="9645"></path></svg>