<?xml version="1.0" standalone="no"?><!DOCTYPE svg PUBLIC "-//W3C//DTD SVG 1.1//EN" "http://www.w3.org/Graphics/SVG/1.1/DTD/svg11.dtd"><svg t="1736930128632" class="icon" viewBox="0 0 1024 1024" version="1.1" xmlns="http://www.w3.org/2000/svg" p-id="5360" xmlns:xlink="http://www.w3.org/1999/xlink" width="200" height="200"><path d="M1009.6 291.2v-28.8c0-22.4-1.6-43.2-6.4-65.6-1.6-22.4-11.2-43.2-20.8-60.8-20.8-38.4-51.2-72-92.8-92.8-20.8-9.6-40-17.6-62.4-20.8-22.4-1.6-43.2-6.4-65.6-6.4H248c-17.6 0-32 1.6-49.6 4.8-16 1.6-32 6.4-48 12.8-4.8 1.6-11.2 4.8-16 6.4-14.4 9.6-27.2 19.2-40 30.4-4.8 1.6-8 6.4-14.4 11.2-16 16-27.2 32-38.4 51.2-9.6 20.8-17.6 40-20.8 62.4S16 238.4 14.4 260.8V760c0 22.4 1.6 43.2 6.4 65.6 1.6 22.4 11.2 43.2 20.8 62.4C62.4 928 92.8 960 134.4 980.8c20.8 9.6 40 17.6 62.4 20.8 22.4 1.6 43.2 6.4 65.6 6.4H761.6c22.4 0 43.2-1.6 65.6-6.4 22.4-1.6 43.2-11.2 62.4-20.8 38.4-20.8 72-51.2 92.8-92.8 9.6-20.8 17.6-40 20.8-62.4s6.4-43.2 6.4-65.6V326.4v-35.2z m-155.2 532.8c-44.8-84.8-126.4-65.6-168-43.2-1.6 1.6-6.4 4.8-11.2 6.4H672c-84.8 48-204.8 49.6-321.6-1.6-96-43.2-176-112-232-200 27.2 20.8 56 38.4 88 51.2 126.4 59.2 249.6 54.4 339.2 0-126.4-96-228.8-222.4-312-323.2-16-17.6-28.8-35.2-43.2-56 96 88 249.6 200 304 228.8-116.8-121.6-217.6-275.2-214.4-267.2 182.4 184 350.4 289.6 350.4 289.6 6.4 1.6 11.2 6.4 16 9.6 1.6-9.6 6.4-17.6 9.6-27.2 28.8-105.6-1.6-228.8-76.8-328 171.2 100.8 270.4 294.4 228.8 459.2-1.6 1.6-1.6 6.4-1.6 11.2 81.6 97.6 59.2 209.6 48 190.4z" p-id="5361" fill="#ffffff"></path></svg>