<?xml version="1.0" standalone="no"?><!DOCTYPE svg PUBLIC "-//W3C//DTD SVG 1.1//EN" "http://www.w3.org/Graphics/SVG/1.1/DTD/svg11.dtd"><svg t="1736929755958" class="icon" viewBox="0 0 1024 1024" version="1.1" xmlns="http://www.w3.org/2000/svg" p-id="4273" xmlns:xlink="http://www.w3.org/1999/xlink" width="200" height="200"><path d="M511.993 32.04C246.892 32.04 32.04 246.892 32.04 511.993s214.852 479.954 479.953 479.954 479.954-214.786 479.954-479.954S777.161 32.04 511.993 32.04z m283.093 439.316a171.033 171.033 0 0 1-98.801 73.783c-1.074 0.305-2.121 0.637-3.195 0.915a72.921 72.921 0 0 1-19.888 2.997c-29.288 0-45.834-19.769-36.938-44.19a70.402 70.402 0 0 1 44.363-39.895 77.164 77.164 0 0 0 54.85-69.832c0-42.069-40.929-76.183-91.417-76.183s-91.483 34.114-91.483 76.183v233.679a154.818 154.818 0 0 1-81.274 133.34 183.774 183.774 0 0 1-91.482 24.13c-95.222 0-172.691-70.64-172.691-157.47a145.75 145.75 0 0 1 21.664-76.183 171.033 171.033 0 0 1 99.345-73.981h0.12a73.756 73.756 0 0 1 21.942-3.46c29.42 0 46.033 19.887 37.124 44.388a71.913 71.913 0 0 1-41.327 38.542 88.346 88.346 0 0 0-6.629 2.493 76.21 76.21 0 0 0-50.925 68.228c0 42.082 40.915 76.195 91.416 76.195s91.483-34.113 91.483-76.195V395.16a154.818 154.818 0 0 1 81.274-133.326 183.748 183.748 0 0 1 91.417-24.13c95.221 0 172.69 70.627 172.69 157.456a145.763 145.763 0 0 1-21.664 76.196z m0 0" p-id="4274" fill="#2c2c2c"></path></svg>